HIERARCHY
ROOT Hips
{
	OFFSET 0.000000 88.474243 0.000000
	CHANNELS 6 Xposition Yposition Zposition Zrotation Yrotation Xrotation 
	JOINT Hips_Spine
	{
		OFFSET 0.000000 0.000000 0.000000
		CHANNELS 3 Zrotation Yrotation Xrotation
		JOINT Spine
		{
			OFFSET 0.005100 8.711998 -0.691000
			CHANNELS 3 Zrotation Yrotation Xrotation
			JOINT Spine1
			{
				OFFSET -0.009200 8.660301 -1.275000
				CHANNELS 3 Zrotation Yrotation Xrotation
				JOINT Spine2
				{
					OFFSET 0.006300 9.852501 -1.857000
					CHANNELS 3 Zrotation Yrotation Xrotation
					JOINT Spine2_Neck
					{
						OFFSET 0.000000 0.000000 0.000000
						CHANNELS 3 Zrotation Yrotation Xrotation
						JOINT Neck
						{
							OFFSET 0.016300 11.420799 -0.263300
							CHANNELS 3 Zrotation Yrotation Xrotation
							End Site #name: Head
							{
								OFFSET -0.019200 9.262405 2.362500
							}
						}
					}
					JOINT Spine2_LeftShoulder
					{
						OFFSET 0.000000 0.000000 0.000000
						CHANNELS 3 Zrotation Yrotation Xrotation
						JOINT LeftShoulder
						{
							OFFSET 5.616900 6.732201 -0.345700
							CHANNELS 3 Zrotation Yrotation Xrotation
							JOINT LeftArm
							{
								OFFSET 10.664888 -0.183372 -2.440700
								CHANNELS 3 Zrotation Yrotation Xrotation
								JOINT LeftForeArm
								{
									OFFSET 27.459126 0.000000 0.000000
									CHANNELS 3 Zrotation Yrotation Xrotation
									End Site #name: LeftHand
									{
										OFFSET 21.306858 0.000000 0.000000
									}
								}
							}
						}
					}
					JOINT Spine2_RightShoulder
					{
						OFFSET 0.000000 0.000000 0.000000
						CHANNELS 3 Zrotation Yrotation Xrotation
						JOINT RightShoulder
						{
							OFFSET -5.580300 6.737503 -0.344400
							CHANNELS 3 Zrotation Yrotation Xrotation
							JOINT RightArm
							{
								OFFSET -10.679335 -0.188484 -2.383900
								CHANNELS 3 Zrotation Yrotation Xrotation
								JOINT RightForeArm
								{
									OFFSET -27.503529 0.000000 0.000000
									CHANNELS 3 Zrotation Yrotation Xrotation
									End Site #name: RightHand
									{
										OFFSET -21.306808 0.000000 0.000000
									}
								}
							}
						}
					}
				}
			}
		}
	}
	JOINT Hips_LeftUpLeg
	{
		OFFSET 0.000000 0.000000 0.000000
		CHANNELS 3 Zrotation Yrotation Xrotation
		JOINT LeftUpLeg
		{
			OFFSET 6.857700 -6.739601 0.312100
			CHANNELS 3 Zrotation Yrotation Xrotation
			JOINT LeftLeg
			{
				OFFSET -0.367590 -34.731552 -4.572400
				CHANNELS 3 Zrotation Yrotation Xrotation
				End Site #name: LeftFoot
				{
					OFFSET 0.367590 -34.656704 -6.067400
				}
			}
		}
	}
	JOINT Hips_RightUpLeg
	{
		OFFSET 0.000000 0.000000 0.000000
		CHANNELS 3 Zrotation Yrotation Xrotation
		JOINT RightUpLeg
		{
			OFFSET -6.876100 -6.733299 0.301000
			CHANNELS 3 Zrotation Yrotation Xrotation
			JOINT RightLeg
			{
				OFFSET 0.347353 -34.795158 -4.515900
				CHANNELS 3 Zrotation Yrotation Xrotation
				End Site #name: RightFoot
				{
					OFFSET -0.347353 -34.589367 -6.070300
				}
			}
		}
	}
}
MOTION
Frames: 14
Frame Time: 0.041667
0.233130 0.418384 0.215234 -2.953724 37.804096 -9.371996 -0.000000 0.000000 0.000000 -0.767080 -1.746913 -4.428387 2.086736 -1.694756 -2.967863 0.000000 0.000000 0.000000 2.567454 -1.276157 -3.310153 3.764707 -3.378795 -3.564565 1.437347 -1.462702 -3.466680 -18.699254 1.738706 8.475764 -54.625507 15.848324 2.477225 -0.684790 -24.942966 6.929793 1.439500 -1.324444 -1.270644 9.386892 6.570436 1.764821 62.130582 1.607578 -9.601171 0.625610 43.440789 -0.543602 0.000000 -0.000000 -0.000000 -7.140173 20.546717 -5.521581 -2.040433 1.480578 24.052961 0.000000 0.000000 0.000000 -4.563646 2.704573 -17.342099 3.992676 -4.094584 13.523164 
-0.022036 0.398286 0.246192 -3.797612 39.844543 -10.072484 -0.000000 0.000000 0.000000 0.088374 -1.661561 -4.803078 2.264752 -1.703062 -2.927147 0.000000 0.000000 0.000000 2.713714 -1.228629 -3.259277 3.565780 -3.523857 -2.951378 1.637754 -1.430759 -3.353737 -18.220511 1.692278 8.534524 -55.435652 16.671780 1.552894 -0.729702 -25.518771 6.918763 1.621707 -1.289085 -1.262939 9.602770 6.706436 1.821400 62.115153 1.455019 -9.682236 0.629789 43.675751 -0.547168 0.000000 -0.000000 -0.000000 -6.462667 20.735746 -4.853724 -2.330827 1.144741 23.696931 0.000000 0.000000 0.000000 -3.756529 2.892011 -17.760039 4.143796 -4.554923 13.812287 
-0.246768 0.373529 0.281558 -4.495215 41.682109 -10.672957 -0.000000 0.000000 0.000000 0.940140 -1.419791 -5.032324 2.419424 -1.709112 -2.867138 0.000000 0.000000 0.000000 2.842526 -1.183748 -3.199804 3.372041 -3.688648 -2.337584 1.817218 -1.398739 -3.231484 -17.828296 1.647070 8.554059 -56.195512 17.460494 0.729797 -0.770044 -26.094790 6.889071 1.785606 -1.253021 -1.248729 9.813144 6.839586 1.875951 62.108592 1.315887 -9.708757 0.633991 43.951527 -0.548426 0.000000 -0.000000 -0.000000 -5.822486 20.859624 -4.155066 -2.646960 0.764947 23.381065 0.000000 0.000000 0.000000 -3.023165 3.156233 -18.145330 4.333351 -4.923223 14.100809 
-0.431873 0.346220 0.315623 -5.028986 43.011450 -11.164914 -0.000000 0.000000 0.000000 1.586224 -1.223548 -5.247636 2.552596 -1.714239 -2.786528 0.000000 0.000000 0.000000 2.951446 -1.140640 -3.130810 3.192140 -3.837892 -1.779413 1.975909 -1.372127 -3.107071 -17.489335 1.598207 8.549652 -56.916890 18.170507 -0.001351 -0.810723 -26.650893 6.859495 1.929411 -1.222310 -1.223928 10.021067 6.964748 1.926276 62.096951 1.190132 -9.694461 0.639539 44.249919 -0.544506 -0.000000 -0.000000 -0.000000 -5.204103 21.021444 -3.427183 -2.991642 0.398633 23.091350 0.000000 -0.000000 0.000000 -2.373106 3.542925 -18.485996 4.527046 -5.214868 14.414158 
-0.572922 0.318633 0.344153 -5.376869 43.618034 -11.532141 -0.000000 -0.000000 0.000000 2.131080 -1.091472 -5.371141 2.674410 -1.720252 -2.679162 0.000000 0.000000 0.000000 3.048354 -1.103973 -3.042883 3.029822 -3.964808 -1.320671 2.117748 -1.352503 -2.973551 -17.174878 1.530385 8.523794 -57.599047 18.790301 -0.639752 -0.853562 -27.152447 6.849677 2.055479 -1.195142 -1.187260 10.233492 7.081984 1.975416 62.069546 1.066470 -9.646272 0.645925 44.576848 -0.538043 -0.000000 -0.000000 -0.000000 -4.611221 21.070772 -2.695032 -3.379492 0.150133 22.853141 0.000000 -0.000000 0.000000 -1.823438 3.994626 -18.823971 4.698056 -5.485465 14.863551 
-0.665742 0.292171 0.364322 -5.508508 43.438700 -11.709805 -0.000000 -0.000000 0.000000 2.577610 -1.033773 -5.392648 2.789763 -1.727042 -2.552239 0.000000 0.000000 0.000000 3.127792 -1.074563 -2.939046 2.885587 -4.025410 -0.960417 2.243758 -1.336569 -2.834666 -16.878407 1.439721 8.481888 -58.229421 19.297037 -1.120212 -0.890218 -27.557892 6.840310 2.164615 -1.173672 -1.143155 10.435020 7.189852 2.021853 62.016420 0.957939 -9.555165 0.655117 44.963081 -0.529442 -0.000000 -0.000000 -0.000000 -4.002857 21.062792 -2.051704 -3.904049 -0.076951 23.001434 0.000000 -0.000000 0.000000 -1.370897 4.472261 -19.177928 4.954615 -5.578685 15.431449 
-0.704344 0.268266 0.375960 -5.407996 42.535540 -11.683611 -0.000000 -0.000000 0.000000 2.932092 -1.069754 -5.361014 2.898946 -1.735750 -2.412471 0.000000 0.000000 0.000000 3.199676 -1.049533 -2.822975 2.784016 -4.048325 -0.687245 2.362356 -1.323415 -2.687669 -16.604645 1.323497 8.426375 -58.759524 19.640339 -1.498509 -0.936609 -27.857178 6.846325 2.263670 -1.159269 -1.095755 10.624703 7.293782 2.064362 61.937966 0.873810 -9.419252 0.666485 45.416718 -0.519703 -0.000000 -0.000000 -0.000000 -3.479149 20.937940 -1.508171 -4.358411 -0.350638 23.341681 0.000000 -0.000000 0.000000 -1.013253 4.980379 -19.563567 5.185147 -5.657872 16.101401 
-0.681316 0.249282 0.381759 -5.093278 40.974622 -11.496922 -0.000000 -0.000000 0.000000 3.176747 -1.206864 -5.275661 3.001521 -1.752519 -2.274356 0.000000 0.000000 0.000000 3.265796 -1.033275 -2.703091 2.687751 -4.062981 -0.426947 2.474838 -1.315719 -2.539655 -16.369806 1.192688 8.361363 -59.139762 19.752484 -1.747568 -0.982245 -28.029968 6.844816 2.354559 -1.155370 -1.046078 10.802416 7.382714 2.102305 61.840838 0.811517 -9.289259 0.681136 45.966805 -0.507727 -0.000000 -0.000000 -0.000000 -3.103613 20.639982 -1.069297 -4.687585 -0.595999 23.824423 0.000000 -0.000000 0.000000 -0.768977 5.527270 -19.938915 5.385376 -5.720577 16.854532 
-0.590017 0.235233 0.380020 -4.618275 38.882472 -11.181966 -0.000000 -0.000000 0.000000 3.309467 -1.434348 -5.152742 3.098409 -1.778611 -2.140135 0.000000 0.000000 0.000000 3.327259 -1.026041 -2.581566 2.609068 -4.066870 -0.170902 2.569796 -1.315571 -2.389094 -16.194959 1.060582 8.290161 -59.412883 19.689332 -1.779799 -1.036513 -28.042635 6.841102 2.435333 -1.163524 -0.995958 10.950312 7.468572 2.135099 61.735450 0.793405 -9.170297 0.697532 46.563238 -0.492618 -0.000000 -0.000000 -0.000000 -2.892756 20.177784 -0.738984 -4.862513 -0.704525 24.377218 0.000000 -0.000000 0.000000 -0.625788 6.090926 -20.304587 5.556781 -5.756207 17.657820 
-0.432686 0.225568 0.368142 -4.055128 36.330504 -10.790583 -0.000000 -0.000000 0.000000 3.369665 -1.714706 -5.035318 3.186489 -1.810994 -2.008933 0.000000 0.000000 0.000000 3.386415 -1.028580 -2.464576 2.541486 -4.066819 0.077968 2.656415 -1.326587 -2.246091 -16.091251 0.948934 8.209510 -59.587869 19.492822 -1.609771 -1.090346 -27.959102 6.816327 2.510478 -1.185674 -0.945571 11.075132 7.542320 2.161977 61.631136 0.776536 -9.096052 0.718105 47.261574 -0.474751 -0.000000 -0.000000 -0.000000 -2.868398 19.567996 -0.471533 -5.044857 -0.800557 24.897579 0.000000 -0.000000 0.000000 -0.543645 6.631923 -20.663677 5.671514 -5.788141 18.548331 
-0.216737 0.207470 0.338935 -3.444682 33.389965 -10.355483 -0.000000 -0.000000 0.000000 3.425992 -2.050960 -4.951392 3.257507 -1.848422 -1.882320 0.000000 0.000000 0.000000 3.445681 -1.039410 -2.349837 2.468839 -4.054738 0.313333 2.741277 -1.346413 -2.114369 -16.062890 0.872642 8.132879 -59.687949 19.183895 -1.285745 -1.134954 -27.794295 6.778202 2.582565 -1.218878 -0.894113 11.147230 7.661803 2.198580 61.527832 0.747968 -9.036161 0.741605 48.024138 -0.455438 -0.000000 -0.000000 -0.000000 -2.965476 18.987019 -0.246684 -5.333878 -0.903278 25.390360 0.000000 -0.000000 0.000000 -0.515373 7.125916 -21.035452 5.721559 -5.849354 19.537864 
0.056236 0.178124 0.299236 -2.797332 30.080299 -9.897938 -0.000000 -0.000000 0.000000 3.439332 -2.295421 -4.848657 3.325936 -1.892574 -1.763250 0.000000 0.000000 0.000000 3.502624 -1.057001 -2.237816 2.376035 -4.031796 0.525496 2.824903 -1.372945 -1.999390 -16.107296 0.853755 8.066295 -59.726995 18.882114 -0.876573 -1.186680 -27.586621 6.714530 2.650316 -1.262308 -0.843330 11.137948 7.810759 2.241791 61.453378 0.682299 -8.985433 0.764244 48.651526 -0.433464 0.000000 -0.000000 -0.000000 -3.184404 18.383010 -0.208301 -5.691823 -1.056815 26.120010 0.000000 -0.000000 0.000000 -0.575034 7.554763 -21.394706 5.758685 -5.842136 20.533419 
0.385300 0.142284 0.254871 -2.140858 26.664704 -9.449068 -0.000000 -0.000000 0.000000 3.376526 -2.540306 -4.764338 3.386207 -1.935514 -1.658123 0.000000 0.000000 0.000000 3.553665 -1.075447 -2.137846 2.266351 -3.999498 0.711057 2.900724 -1.402361 -1.911154 -16.221717 0.871415 8.006148 -59.696239 18.619388 -0.424501 -1.241769 -27.382398 6.630254 2.708146 -1.307517 -0.801979 11.035939 7.931161 2.278757 61.412120 0.548887 -8.970914 0.788026 49.040438 -0.406791 0.000000 -0.000000 -0.000000 -3.594148 17.703384 -0.385485 -6.053249 -1.307005 26.946303 0.000000 -0.000000 0.000000 -0.741330 7.907034 -21.778623 5.813291 -5.738688 21.578106 
0.759787 0.105751 0.209982 -1.522166 23.463954 -9.046591 -0.000000 -0.000000 0.000000 3.274516 -2.760351 -4.721584 3.444583 -1.975586 -1.575277 0.000000 0.000000 0.000000 3.597574 -1.094708 -2.055732 2.150543 -3.961900 0.849314 2.968117 -1.429617 -1.855192 -16.379327 0.912278 7.963160 -59.622568 18.449256 0.006019 -1.291180 -27.201274 6.523826 2.760533 -1.345531 -0.772700 10.861504 8.021684 2.300869 61.412260 0.367798 -8.985345 0.810937 49.242421 -0.381123 0.000000 -0.000000 -0.000000 -4.218094 16.933847 -0.641271 -6.364429 -1.556762 27.730522 0.000000 -0.000000 0.000000 -1.009697 8.236071 -22.236136 5.864188 -5.564146 22.655707 
